<svg xmlns="http://www.w3.org/2000/svg" height="40px" viewBox="0 -960 960 960" width="40px" fill="#FFFFFF"><path d="M163.71-169.9q-60.45-60.58-60.45-146.77V-732.2q0-49.03 37.95-83.84 37.95-34.8 87.22-34.8 49.27 0 87.21 38.03 37.95 38.03 37.95 87.22 0 51.39-36.96 88.24-36.97 36.84-88.12 36.84h-49.34v283.84q0 55.31 37.95 93.45 37.94 38.15 93.33 38.15 55.38 0 93.53-38.15 38.14-38.14 38.14-93.45V-644q0-85.88 60.62-146.36 60.61-60.48 146.86-60.48 86.24 0 146.69 60.48T856.74-644v408.93q0 52.06-33.61 88.91-33.61 36.84-85.36 36.84t-91.56-36.85q-39.8-36.84-39.8-88.58 0-51.74 36.5-88.65 36.5-36.92 88.08-36.92h50V-644q0-54.71-38.25-92.82-38.24-38.11-93.07-38.11-54.84 0-93.31 38.11-38.48 38.11-38.48 92.82v327.33q0 86.19-60.62 146.77-60.61 60.58-146.86 60.58-86.24 0-146.69-60.58Zm15.46-506.36h49.34q19.66 0 34.83-14.83 15.17-14.84 15.17-34.5 0-19.67-15.17-34.5-15.17-14.84-34.91-14.84-19.75 0-34.5 14.84-14.76 14.83-14.76 34.5v49.33Zm552.15 491.19q19.84 0 34.42-14.84 14.58-14.83 14.58-35.16v-49.34h-49.33q-19.83 0-34.25 14.84-14.42 14.83-14.42 34.83t14.42 34.83q14.42 14.84 34.58 14.84Zm-1-50.67ZM229.84-726.93Z"/></svg>